<mxfile host="app.diagrams.net" modified="2023-08-14T13:31:17.302Z" agent="Mozilla/5.0 (Windows NT 10.0; Win64; x64) AppleWebKit/537.36 (KHTML, like Gecko) Chrome/115.0.0.0 Safari/537.36" version="21.6.8" etag="baDz-LKJw2cEb5df_z8-" type="github">
  <diagram name="ページ1" id="WzxdQZ-4_edusPOKLapa">
    <mxGraphModel>
      <root>
        <mxCell id="0" />
        <mxCell id="1" parent="0" />
      </root>
    </mxGraphModel>
  </diagram>
</mxfile>
